#!OML:ASF Y:\EmotionMaleHayes\Project 1\Capture day 1\Session 1\Male1.ASF
:FULLY-SPECIFIED
:DEGREES
1301
root -22.589 15.722 -13.1076 367.467 -52.2805 -375.172
lowerback 14.3362 3.06141 0.189084
upperback 5.48204 3.90468 -0.0482818
thorax -2.22238 1.87724 -0.774035
lowerneck -19.1103 10.5682 16.6418
upperneck 27.3997 13.7817 -13.1757
head 14.9264 5.99091 -5.52328
rclavicle -1.14102e-013 1.43125e-014
rhumerus -13.0327 37.1826 -76.412
rradius 83.4095
rwrist -21.6115
rhand -22.7294 -31.4623
rfingers 7.12502
rthumb 3.70441 -61.4099
lclavicle -1.14102e-013 1.43125e-014
lhumerus -60.8726 -6.12228 59.1728
lradius 21.3428
lwrist -0.941361
lhand -26.6705 -17.5697
lfingers 7.12502
lthumb -0.101842 12.41
rfemur 15.4585 -11.8506 24.9726
rtibia 4.50461
rfoot -18.0651 -2.33135
rtoes -28.9066
lfemur -18.329 20.9662 -29.5324
ltibia 30.591
lfoot -26.754 19.9707
ltoes 39.1311
1302
root -22.706 15.7355 -12.964 366.392 -50.8643 -373.5
lowerback 14.0628 2.84619 0.0947732
upperback 5.45905 3.61301 -0.178159
thorax -2.10136 1.73688 -0.79699
lowerneck -19.4883 10.5552 16.1112
upperneck 27.8473 13.8455 -12.8919
head 15.1445 5.97892 -5.3078
rclavicle -5.12864e-014 4.77083e-015
rhumerus -15.5242 37.0729 -78.0397
rradius 81.5837
rwrist -20.8483
rhand -21.2046 -32.0305
rfingers 7.12502
rthumb 5.17684 -61.9473
lclavicle -5.12864e-014 4.77083e-015
lhumerus -59.0525 -6.05813 60.7665
lradius 20.9975
lwrist -1.08338
lhand -27.2312 -18.086
lfingers 7.12502
lthumb -0.643378 11.8928
rfemur 15.4585 -11.8506 24.9726
rtibia 4.50461
rfoot -18.0651 -2.33135
rtoes -28.9066
lfemur -17.08 21.0616 -30.666
ltibia 29.358
lfoot -25.8727 18.7743
ltoes 38.0525
1303
root -22.8091 15.7582 -12.8119 365.139 -49.2802 -371.489
lowerback 13.8446 2.61159 -0.0862048
upperback 5.3243 3.28373 -0.432032
thorax -2.12487 1.57818 -0.902499
lowerneck -19.7233 10.483 15.5636
upperneck 28.3371 13.8126 -12.4815
head 15.3182 5.9448 -5.06142
rclavicle 3.97569e-015 -3.33958e-014
rhumerus -18.1663 36.9198 -79.7327
rradius 79.3077
rwrist -20.3044
rhand -20.3547 -32.5759
rfingers 7.12502
rthumb 5.99737 -62.4711
lclavicle 3.97569e-015 -3.33958e-014
lhumerus -57.3761 -6.40053 62.7336
lradius 21.1682
lwrist -0.09266
lhand -27.9483 -18.5658
lfingers 7.12502
lthumb -1.33598 11.4098
rfemur 15.4585 -11.8506 24.9726
rtibia 4.50461
rfoot -18.0651 -2.33135
rtoes -28.9066
lfemur -15.8937 18.6404 -32.4845
ltibia 28.1593
lfoot -26.2421 18.8985
ltoes 38.1907
1304
root -22.9308 15.7932 -12.677 364.478 -47.4824 -370.431
lowerback 13.7245 2.48495 0.129251
upperback 5.26811 3.15191 -0.471666
thorax -2.10706 1.51862 -1.04048
lowerneck -19.9435 10.1582 14.8996
upperneck 28.6273 13.4178 -12.0479
head 15.3174 5.75281 -4.85984
rclavicle 3.02153e-014 0
rhumerus -20.9741 36.3265 -81.3075
rradius 76.9289
rwrist -19.8933
rhand -20.2797 -33.3592
rfingers 7.12502
rthumb 6.06976 -63.2522
lclavicle 3.02153e-014 0
lhumerus -55.5824 -7.33849 65.1349
lradius 21.8805
lwrist 2.05066
lhand -28.6996 -18.7789
lfingers 7.12502
lthumb -2.06155 11.1909
rfemur 15.4585 -11.8506 24.9726
rtibia 4.50461
rfoot -18.0651 -2.33135
rtoes -28.9066
lfemur -14.6154 16.7122 -33.2856
ltibia 27.4045
lfoot -26.6889 18.48
ltoes 38.4948
1305
root -23.0557 15.8414 -12.5429 363.9 -45.6342 -369.415
lowerback 13.532 2.35545 0.052821
upperback 5.18895 2.98433 -0.382803
thorax -2.09849 1.43777 -0.87387
lowerneck -19.9271 9.81773 14.2826
upperneck 28.7109 13.0447 -11.7563
head 15.1975 5.56822 -4.71943
rclavicle 8.26944e-014 -2.78299e-014
rhumerus -23.8029 35.7182 -82.7982
rradius 74.4319
rwrist -19.6595
rhand -20.6302 -33.9978
rfingers 7.12502
rthumb 5.73137 -63.9003
lclavicle 8.26944e-014 -2.78299e-014
lhumerus -54.0689 -8.28642 67.8392
lradius 23.0719
lwrist 5.19295
lhand -29.3603 -18.6416
lfingers 7.12502
lthumb -2.69965 11.3211
rfemur 15.4585 -11.8506 24.9726
rtibia 4.50461
rfoot -18.0651 -2.33135
rtoes -28.9066
lfemur -13.2385 15.1856 -33.9761
ltibia 26.4041
lfoot -26.6765 17.8459
ltoes 38.7984
1306
root -23.1741 15.8993 -12.4012 363.397 -43.7159 -368.377
lowerback 13.1927 2.20729 -0.0649564
upperback 5.14173 2.78759 -0.299255
thorax -1.97826 1.34265 -0.679196
lowerneck -19.9504 9.53143 13.7434
upperneck 28.7763 12.7513 -11.5563
head 15.1127 5.41246 -4.61082
rclavicle 1.07344e-014 -8.74653e-015
rhumerus -26.4319 34.7906 -84.091
rradius 71.7605
rwrist -19.3695
rhand -20.8002 -34.2162
rfingers 7.12502
rthumb 5.56728 -64.1231
lclavicle 1.07344e-014 -8.74653e-015
lhumerus -52.729 -9.2582 70.5767
lradius 24.718
lwrist 8.55049
lhand -30.1157 -18.8224
lfingers 7.12502
lthumb -3.42916 11.1298
rfemur 15.4585 -11.8506 24.9726
rtibia 4.50461
rfoot -18.0651 -2.33135
rtoes -28.9066
lfemur -11.7962 13.8813 -34.7709
ltibia 25.144
lfoot -26.2381 17.1624
ltoes 38.319
1307
root -23.2896 15.9626 -12.2623 362.953 -41.6836 -367.149
lowerback 12.6873 2.06688 -0.425111
upperback 5.09569 2.57273 -0.280592
thorax -1.77314 1.23687 -0.408907
lowerneck -20.0535 9.22719 13.2561
upperneck 28.8291 12.3999 -11.3493
head 15.0372 5.2362 -4.51717
rclavicle 9.36276e-014 -2.62396e-014
rhumerus -28.8397 33.5184 -85.3186
rradius 68.8379
rwrist -19.1904
rhand -21.0194 -34.4354
rfingers 7.12502
rthumb 5.35557 -64.3477
lclavicle 9.36276e-014 -2.62396e-014
lhumerus -51.4628 -10.1085 72.9767
lradius 26.6688
lwrist 11.4921
lhand -30.5043 -20.076
lfingers 7.12502
lthumb -3.8045 9.86975
rfemur 15.4585 -11.8506 24.9726
rtibia 4.50461
rfoot -18.0651 -2.33135
rtoes -28.9066
lfemur -10.521 12.4955 -35.8613
ltibia 23.8581
lfoot -25.7911 16.4674
ltoes 37.5012
1308
root -23.4084 16.0275 -12.1278 362.534 -39.4336 -365.901
lowerback 12.3139 1.89917 -0.973766
upperback 4.99262 2.30188 -0.276642
thorax -1.70135 1.10083 -0.0490282
lowerneck -20.2789 8.92884 12.9094
upperneck 28.9935 11.9826 -11.0769
head 15.0383 5.05093 -4.43405
rclavicle -8.34896e-014 3.4191e-014
rhumerus -31.0387 32.0543 -86.5387
rradius 65.5464
rwrist -19.5386
rhand -21.6901 -34.947
rfingers 7.12502
rthumb 4.708 -64.8747
lclavicle -8.34896e-014 3.4191e-014
lhumerus -50.3723 -10.6611 74.962
lradius 29.0906
lwrist 13.9496
lhand -30.0583 -21.2281
lfingers 7.12502
lthumb -3.37377 8.72497
rfemur 15.4585 -11.8506 24.9726
rtibia 4.50461
rfoot -18.0651 -2.33135
rtoes -28.9066
lfemur -9.15576 11.1501 -36.9292
ltibia 22.4576
lfoot -25.1085 15.7717
ltoes 36.3303
1309
root -23.5347 16.0933 -11.9959 362.104 -36.7493 -364.904
lowerback 12.2735 1.6239 -1.3564
upperback 4.8752 1.90444 -0.241064
thorax -1.81219 0.903414 0.255829
lowerneck -20.668 8.68737 12.6142
upperneck 29.31 11.6052 -10.7342
head 15.1535 4.89108 -4.32224
rclavicle -4.33351e-014 -7.95139e-015
rhumerus -33.2077 30.6602 -87.5343
rradius 62.3065
rwrist -20.4077
rhand -22.4609 -35.7882
rfingers 7.12502
rthumb 3.96371 -65.731
lclavicle -4.33351e-014 -7.95139e-015
lhumerus -49.2127 -11.4562 76.9497
lradius 31.6957
lwrist 16.259
lhand -29.4526 -21.4853
lfingers 7.12502
lthumb -2.78886 8.47621
rfemur 15.4585 -11.8506 24.9726
rtibia 4.50461
rfoot -18.0651 -2.33135
rtoes -28.9066
lfemur -7.42523 9.05985 -37.784
ltibia 21.1841
lfoot -24.5037 15.3527
ltoes 35.0907
1310
root -23.6614 16.1588 -11.8655 361.746 -33.8637 -364.167
lowerback 12.428 1.43148 -1.36782
upperback 4.66586 1.65113 -0.325113
thorax -2.10806 0.783918 0.202896
lowerneck -20.7996 8.26131 12.5294
upperneck 29.5618 10.8906 -10.3696
head 15.1468 4.62754 -4.31244
rclavicle -2.56432e-014 -1.74931e-014
rhumerus -35.7107 28.6165 -88.4607
rradius 59.3195
rwrist -21.2379
rhand -22.3155 -36.8661
rfingers 7.12502
rthumb 4.10412 -66.8063
lclavicle -2.56432e-014 -1.74931e-014
lhumerus -48.4852 -13.7704 79.2859
lradius 34.9078
lwrist 18.8618
lhand -29.0759 -20.9813
lfingers 7.12502
lthumb -2.42501 8.98463
rfemur 15.4585 -11.8506 24.9726
rtibia 4.50461
rfoot -18.0651 -2.33135
rtoes -28.9066
lfemur -5.3498 8.40441 -38.0257
ltibia 19.4825
lfoot -23.5183 13.3363
ltoes 34.1375
1311
root -23.79 16.2201 -11.7389 361.524 -31.052 -363.64
lowerback 12.5422 1.12994 -1.81789
upperback 4.63905 1.21372 -0.00313818
thorax -2.20691 0.564615 0.849986
lowerneck -21.2645 8.01599 11.9943
upperneck 29.6961 10.6322 -10.1914
head 15.2172 4.46936 -4.19609
rclavicle 4.77083e-015 7.95139e-016
rhumerus -37.5653 27.2326 -88.6889
rradius 56.2093
rwrist -21.9914
rhand -21.2861 -37.9146
rfingers 7.12502
rthumb 5.09811 -67.8333
lclavicle 4.77083e-015 7.95139e-016
lhumerus -47.6534 -14.8445 81.5234
lradius 38.1666
lwrist 20.3853
lhand -28.4441 -20.4087
lfingers 7.12502
lthumb -1.81486 9.56334
rfemur 15.4585 -11.8506 24.9726
rtibia 4.50461
rfoot -18.0651 -2.33135
rtoes -28.9066
lfemur -3.67452 6.19868 -38.4359
ltibia 18.6209
lfoot -23.4107 12.8506
ltoes 33.1495
1312
root -23.9231 16.2777 -11.6138 361.42 -28.269 -363.021
lowerback 12.5057 0.854396 -2.30566
upperback 4.49867 0.807601 0.241497
thorax -2.33076 0.364141 1.43677
lowerneck -21.4564 7.70192 11.361
upperneck 29.8396 10.3217 -9.95066
head 15.2141 4.29454 -4.05296
rclavicle -5.70512e-014 2.26615e-014
rhumerus -39.5047 25.6734 -88.9353
rradius 52.9771
rwrist -22.5836
rhand -20.5285 -38.4272
rfingers 7.12502
rthumb 5.82959 -68.3271
lclavicle -5.70512e-014 2.26615e-014
lhumerus -46.8899 -16.6756 84.0175
lradius 40.9188
lwrist 21.9755
lhand -27.927 -20.247
lfingers 7.12502
lthumb -1.31537 9.72873
rfemur -21.4645 1.55562 4.55707
rtibia 68.527
rfoot -5.79431 -6.23625
rtoes 12.6825
lfemur -2.09726 4.29808 -38.9199
ltibia 17.4915
lfoot -22.367 12.6378
ltoes 30.1787
1313
root -24.0566 16.333 -11.4886 361.479 -25.4374 -362.555
lowerback 12.4558 0.599678 -2.48343
upperback 4.33236 0.462224 0.378499
thorax -2.46443 0.197575 1.72892
lowerneck -21.7145 7.3761 10.9027
upperneck 29.9892 9.95517 -9.79639
head 15.2432 4.10306 -3.98753
rclavicle 2.22639e-014 2.78299e-015
rhumerus -41.382 23.8553 -89.2028
rradius 49.7454
rwrist -22.7157
rhand -22.9741 -38.9479
rfingers 7.12502
rthumb 3.46814 -68.8994
lclavicle 2.22639e-014 2.78299e-015
lhumerus -46.5086 -18.9925 86.3315
lradius 44.376
lwrist 23.1585
lhand -27.6208 -19.7757
lfingers 7.12502
lthumb -1.01968 10.2017
rfemur -22.483 1.26704 4.28646
rtibia 66.8297
rfoot -6.73317 -7.92369
rtoes 17.0841
lfemur -0.646246 2.88308 -39.1207
ltibia 16.427
lfoot -22.367 12.6378
ltoes 30.1787
1314
root -24.1905 16.3831 -11.3692 361.516 -22.7205 -362.226
lowerback 12.6303 0.393504 -2.56012
upperback 4.16214 0.184789 0.493343
thorax -2.72369 0.0670335 1.93187
lowerneck -21.8861 7.09554 10.6301
upperneck 30.0369 9.62879 -9.7616
head 15.2357 3.93749 -3.99393
rclavicle 7.55382e-015 -9.14409e-015
rhumerus -43.1814 21.9824 -89.4095
rradius 46.5391
rwrist -22.1967
rhand -21.7394 -38.6926
rfingers 7.12502
rthumb 4.66038 -68.6213
lclavicle 7.55382e-015 -9.14409e-015
lhumerus -46.3111 -21.2911 88.3719
lradius 48.1117
lwrist 23.951
lhand -27.1843 -19.396
lfingers 7.12502
lthumb -0.598054 10.5829
rfemur -23.4242 1.35046 4.16029
rtibia 65.0596
rfoot -7.99386 -9.25252
rtoes 21.4551
lfemur 0.755753 1.52475 -39.0858
ltibia 15.5315
lfoot -22.97 9.50924
ltoes 35.1158
1315
root -24.3203 16.4199 -11.2201 361.451 -19.8898 -361.458
lowerback 12.3313 0.129681 -2.9933
upperback 4.13631 -0.200755 0.509409
thorax -2.56485 -0.125 2.24802
lowerneck -22.064 6.92169 10.4641
upperneck 30.0258 9.42588 -9.75807
head 15.2303 3.83224 -4.00306
rclavicle 4.49253e-014 -7.15625e-015
rhumerus -44.8189 20.3595 -89.4794
rradius 43.3696
rwrist -21.0996
rhand -21.0128 -38.3744
rfingers 7.12502
rthumb 5.36195 -68.2866
lclavicle 4.49253e-014 -7.15625e-015
lhumerus -45.842 -23.5713 90.2707
lradius 51.5334
lwrist 24.557
lhand -26.7118 -19.2199
lfingers 7.12502
lthumb -0.141731 10.7598
rfemur -24.0255 0.743035 3.25839
rtibia 62.8497
rfoot -9.0184 -9.98929
rtoes 19.3806
lfemur 2.33804 -0.193034 -39.8208
ltibia 14.5686
lfoot -22.3458 8.75898
ltoes 33.4095
